<?xml version="1.0" encoding="UTF-8"?>
<svg width="42px" height="42px" viewBox="0 0 42 42" version="1.1" xmlns="http://www.w3.org/2000/svg" xmlns:xlink="http://www.w3.org/1999/xlink">
    <!-- Generator: Sketch 50 (54983) - http://www.bohemiancoding.com/sketch -->
    <title>Facebook</title>
    <desc>Created with Sketch.</desc>
    <defs></defs>
    <g id="Welcome" stroke="none" stroke-width="1" fill="none" fill-rule="evenodd">
        <g id="Home-HD" transform="translate(-645.000000, -1857.000000)" fill="#FFFFFF">
            <g id="Footer" transform="translate(0.000000, 1823.000000)">
                <g id="Socials" transform="translate(590.000000, 34.000000)">
                    <path d="M76.0027657,0 C64.4033979,0 55,9.40339787 55,21.0027657 C55,32.5966021 64.4033979,42 76.0027657,42 C87.5966021,42 97,32.5966021 97,21.0027657 C97,9.40339787 87.5966021,0 76.0027657,0 L76.0027657,0 Z M86.2192809,29.8806796 C86.2192809,30.5001976 85.9150533,31.1589885 85.3010668,31.1589885 L80.1347294,31.1589885 L80.1347294,23.4150138 L82.7621493,23.4150138 L83.1604109,20.0961675 L80.1347294,20.0961675 L80.1347294,18.1153694 C80.1347294,17.2303437 80.37258,16.7773212 81.6448044,16.7773212 L83.4535757,16.7773212 L83.4535757,13.8838404 C82.9004346,13.8451205 82.043066,13.7621493 80.9201896,13.7621493 C78.5859344,13.7621493 76.8158831,15.1892533 76.8158831,17.8111418 L76.8158831,20.0961675 L74.0501778,20.0961675 L74.0501778,23.4150138 L76.8158831,23.4150138 L76.8158831,31.1589885 L67.23548,31.1589885 C66.6159621,31.1589885 66.3062031,30.5001976 66.3062031,29.8806796 L66.3062031,11.8150928 C66.3062031,11.1955749 66.6159621,10.6927697 67.23548,10.6927697 L85.3010668,10.6927697 C85.9150533,10.6927697 86.2192809,11.1955749 86.2192809,11.8150928 L86.2192809,29.8806796 L86.2192809,29.8806796 Z" id="Facebook"></path>
                </g>
            </g>
        </g>
    </g>
</svg>