<?xml version="1.0" encoding="UTF-8"?>
<svg width="42px" height="42px" viewBox="0 0 42 42" version="1.1" xmlns="http://www.w3.org/2000/svg" xmlns:xlink="http://www.w3.org/1999/xlink">
    <!-- Generator: Sketch 50 (54983) - http://www.bohemiancoding.com/sketch -->
    <title>Google+</title>
    <desc>Created with Sketch.</desc>
    <defs></defs>
    <g id="Welcome" stroke="none" stroke-width="1" fill="none" fill-rule="evenodd">
        <g id="Home-HD" transform="translate(-590.000000, -1857.000000)" fill="#FFFFFF">
            <g id="Footer" transform="translate(0.000000, 1823.000000)">
                <g id="Socials" transform="translate(590.000000, 34.000000)">
                    <path d="M21.0027657,0 C9.40339787,0 0,9.40339787 0,21.0027657 C0,32.5966021 9.40339787,42 21.0027657,42 C32.5966021,42 42,32.5966021 42,21.0027657 C42,9.40339787 32.5966021,0 21.0027657,0 L21.0027657,0 Z M16.9261162,28.3706045 C13.0098775,28.3706045 9.83484789,25.1070723 9.83484789,21.1853023 C9.83484789,17.2635322 13.0098775,14.0359542 16.9261162,14.0359542 C18.7625444,14.0359542 20.4385618,14.7201896 21.694192,15.8651916 C20.211774,17.2701699 20.2615567,17.3415251 19.6752272,17.9278546 C18.9506124,17.3193994 18.1540893,16.8790992 16.9261162,16.8790992 C14.5973923,16.8790992 12.7830897,18.7697353 12.7830897,21.0984591 C12.7830897,23.4271829 14.5973923,25.4732517 16.9261162,25.4732517 C19.2216515,25.4732517 20.1564599,24.4659818 20.7593836,22.8065587 L17.0090873,22.8065587 L17.0090873,20.0408534 L23.7352825,20.0408534 C24.2054524,23.3596997 22.7783485,28.3706045 16.9261162,28.3706045 L16.9261162,28.3706045 Z M31.9438957,21.7002766 L29.7313315,21.7002766 L29.7313315,24.4659818 L28.0719083,24.4659818 L28.0719083,21.7002766 L25.3062031,21.7002766 L25.3062031,20.0408534 L28.0719083,20.0408534 L28.0719083,17.8282892 L29.7313315,17.8282892 L29.7313315,20.0408534 L31.9438957,20.0408534 L31.9438957,21.7002766 L31.9438957,21.7002766 Z" id="Google+"></path>
                </g>
            </g>
        </g>
    </g>
</svg>