<?xml version="1.0" encoding="UTF-8"?>
<svg width="42px" height="42px" viewBox="0 0 42 42" version="1.1" xmlns="http://www.w3.org/2000/svg" xmlns:xlink="http://www.w3.org/1999/xlink">
    <!-- Generator: Sketch 50 (54983) - http://www.bohemiancoding.com/sketch -->
    <title>Linkedin</title>
    <desc>Created with Sketch.</desc>
    <defs></defs>
    <g id="Welcome" stroke="none" stroke-width="1" fill="none" fill-rule="evenodd">
        <g id="Home-HD" transform="translate(-700.000000, -1858.000000)" fill="#FFFFFF">
            <g id="Footer" transform="translate(0.000000, 1823.000000)">
                <g id="Socials" transform="translate(590.000000, 34.000000)">
                    <path d="M131.002766,1 C119.403398,1 110,10.4033979 110,22.0027657 C110,33.5966021 119.403398,43 131.002766,43 C142.596602,43 152,33.5966021 152,22.0027657 C152,10.4033979 142.596602,1 131.002766,1 L131.002766,1 Z M121.859344,18.6286053 L125.731331,18.6286053 L125.731331,31.3508495 L121.859344,31.3508495 L121.859344,18.6286053 Z M123.56855,17.5223232 L123.540893,17.5223232 C122.097195,17.5223232 121.167918,16.4215725 121.167918,15.1991308 C121.167918,13.9545634 122.124852,12.9423153 123.596207,12.9423153 C125.062031,12.9423153 125.963651,13.9877519 125.996839,15.2323192 C125.996839,16.454761 125.062031,17.5223232 123.56855,17.5223232 L123.56855,17.5223232 Z M141.772422,31.3508495 L136.794153,31.3508495 L136.794153,24.9067562 C136.794153,23.1975504 136.224417,22.0359542 134.670091,22.0359542 C133.486369,22.0359542 132.800474,22.8214145 132.490715,23.5792177 C132.374556,23.8502568 132.369024,24.2263927 132.369024,24.6080601 L132.369024,31.3508495 L128.087712,31.3508495 C128.087712,31.3508495 128.143026,19.7348874 128.087712,18.6286053 L132.369024,18.6286053 L132.369024,20.8024496 C132.922165,19.9395496 134.249704,18.706045 136.528645,18.706045 C139.355196,18.706045 141.772422,20.5148163 141.772422,24.4199921 L141.772422,31.3508495 L141.772422,31.3508495 Z" id="Linkedin"></path>
                </g>
            </g>
        </g>
    </g>
</svg>