<?xml version="1.0" encoding="UTF-8"?>
<svg width="42px" height="42px" viewBox="0 0 42 42" version="1.1" xmlns="http://www.w3.org/2000/svg" xmlns:xlink="http://www.w3.org/1999/xlink">
    <!-- Generator: Sketch 50 (54983) - http://www.bohemiancoding.com/sketch -->
    <title>Twitter</title>
    <desc>Created with Sketch.</desc>
    <defs></defs>
    <g id="Welcome" stroke="none" stroke-width="1" fill="none" fill-rule="evenodd">
        <g id="Home-HD" transform="translate(-754.000000, -1858.000000)" fill="#FFFFFF">
            <g id="Footer" transform="translate(0.000000, 1823.000000)">
                <g id="Socials" transform="translate(590.000000, 34.000000)">
                    <path d="M185.002766,1 C173.403398,1 164,10.4033979 164,22.0027657 C164,33.5966021 173.403398,43 185.002766,43 C196.596602,43 206,33.5966021 206,22.0027657 C206,10.4033979 196.596602,1 185.002766,1 L185.002766,1 Z M192.984591,17.5499802 C192.990122,17.7380482 192.995654,17.9261162 192.995654,18.1141841 C192.995654,23.8723825 188.719874,30.5156065 180.903991,30.5156065 C178.503358,30.5156065 176.268669,29.7909917 174.387989,28.5574872 C174.719874,28.596207 175.05729,28.6183327 175.400237,28.6183327 C177.391545,28.6183327 179.227973,27.921375 180.682734,26.7542473 C178.818649,26.7155275 177.25326,25.4598973 176.711181,23.7285658 C176.971158,23.7783485 177.236665,23.8060055 177.507704,23.8060055 C177.900435,23.8060055 178.320822,23.7506914 178.674832,23.651126 C176.727776,23.2528645 175.306203,21.4883445 175.306203,19.3753457 L175.306203,19.325563 C175.859344,19.6463848 176.495456,19.8455156 177.192414,19.8676412 C176.047412,19.0877124 175.278546,17.749111 175.278546,16.239036 C175.278546,15.4425128 175.477677,14.690241 175.84275,14.0485974 C177.939154,16.6870802 181.064401,18.4184117 184.598973,18.6009482 C184.521533,18.2801264 184.485579,17.9482418 184.485579,17.6108258 C184.485579,15.2046622 186.386725,13.2520743 188.732596,13.2520743 C189.955038,13.2520743 191.060213,13.7775583 191.834611,14.6238641 C192.802608,14.4302647 193.709759,14.070723 194.533939,13.5673647 C194.218649,14.5851442 193.543264,15.4425128 192.663769,15.9790597 C193.526669,15.8739629 194.345318,15.6416436 195.103121,15.2931648 C194.538917,16.1671276 193.814303,16.9359937 192.984591,17.5499802 L192.984591,17.5499802 Z" id="Twitter"></path>
                </g>
            </g>
        </g>
    </g>
</svg>