<?xml version="1.0" encoding="UTF-8"?>
<svg width="42px" height="42px" viewBox="0 0 42 42" version="1.1" xmlns="http://www.w3.org/2000/svg" xmlns:xlink="http://www.w3.org/1999/xlink">
    <!-- Generator: Sketch 50 (54983) - http://www.bohemiancoding.com/sketch -->
    <title>Group 2</title>
    <desc>Created with Sketch.</desc>
    <defs></defs>
    <g id="Welcome" stroke="none" stroke-width="1" fill="none" fill-rule="evenodd">
        <g id="Home-HD" transform="translate(-808.000000, -1858.000000)" fill="#FFFFFF">
            <g id="Footer" transform="translate(0.000000, 1823.000000)">
                <g id="Socials" transform="translate(590.000000, 34.000000)">
                    <g id="Group-2" transform="translate(218.000000, 1.000000)">
                        <path d="M21.0027657,0 C9.40339787,0 1.13686838e-13,9.40339787 1.13686838e-13,21.0027657 C1.13686838e-13,32.5966021 9.40339787,42 21.0027657,42 C32.5966021,42 42,32.5966021 42,21.0027657 C42,9.40339787 32.5966021,0 21.0027657,0 L21.0027657,0 Z M31.772422,28.6803635 C31.772422,30.007902 30.5887001,30.9039905 29.2611616,30.9039905 L13.8008692,30.9039905 C12.4677993,30.9039905 11.3062031,30.007902 11.3062031,28.6803635 L11.3062031,13.2090083 C11.3062031,11.8814698 12.4677993,10.9909127 13.8008692,10.9909127 L29.2611616,10.9909127 C30.5887001,10.9909127 31.772422,11.8814698 31.772422,13.2090083 L31.772422,28.6803635 L31.772422,28.6803635 Z" id="Instagram-Circle"></path>
                        <path d="M17.1268966,20.7462069 C17.1268966,18.6 18.8648276,16.862069 21.0110345,16.862069 C23.1627586,16.862069 24.9062069,18.6 24.9062069,20.7462069 C24.9062069,22.8868966 23.1627586,24.6248276 21.0110345,24.6248276 C18.8648276,24.6248276 17.1268966,22.8868966 17.1268966,20.7462069 Z M28.4482759,15.6758621 C28.4482759,16.0262069 28.1641379,16.3103448 27.8137931,16.3103448 L25.7724138,16.3103448 C25.422069,16.3103448 25.137931,16.0262069 25.137931,15.6758621 L25.137931,13.6344828 C25.137931,13.2841379 25.422069,13 25.7724138,13 L27.8137931,13 C28.1641379,13 28.4482759,13.2841379 28.4482759,13.6344828 L28.4482759,15.6758621 Z M26.6772414,19.0689655 L29,19.0689655 L29,28.3048276 C29,28.657931 28.9227586,29 28.5751724,29 L13.4027586,29 C13.0551724,29 13,28.657931 13,28.3048276 L13,19.0689655 L15.3006897,19.0689655 C14.9696552,19.0689655 14.8593103,20.3048276 14.8593103,20.8675862 C14.8593103,24.2496552 17.6234483,26.9475862 21.0110345,26.9475862 C24.4096552,26.9475862 27.1682759,24.28 27.1682759,20.897931 C27.1682759,20.3351724 27.0855172,19.0689655 26.6772414,19.0689655 Z" id="Instagram"></path>
                    </g>
                </g>
            </g>
        </g>
    </g>
</svg>